<svg xmlns="http://www.w3.org/2000/svg" xmlns:xlink="http://www.w3.org/1999/xlink" width="500" zoomAndPan="magnify" viewBox="0 0 375 374.999991" height="500" preserveAspectRatio="xMidYMid meet" version="1.0"><defs><g/><clipPath id="788f68befe"><path d="M 110.671875 321.148438 L 120.105469 321.148438 L 120.105469 330.582031 L 110.671875 330.582031 Z M 110.671875 321.148438 " clip-rule="nonzero"/></clipPath><clipPath id="7aee4222a2"><path d="M 254.988281 321.730469 L 264.421875 321.730469 L 264.421875 331.164062 L 254.988281 331.164062 Z M 254.988281 321.730469 " clip-rule="nonzero"/></clipPath></defs><path fill="#39a900" d="M 188.273438 56.816406 C 187.433594 56.816406 186.589844 56.859375 185.75 56.941406 C 184.914062 57.027344 184.078125 57.152344 183.253906 57.316406 C 182.425781 57.484375 181.609375 57.6875 180.804688 57.933594 C 179.996094 58.179688 179.203125 58.464844 178.425781 58.789062 C 177.648438 59.113281 176.886719 59.476562 176.144531 59.875 C 175.398438 60.273438 174.679688 60.707031 173.976562 61.175781 C 173.277344 61.648438 172.601562 62.148438 171.949219 62.6875 C 171.300781 63.222656 170.675781 63.789062 170.082031 64.386719 C 169.484375 64.984375 168.917969 65.609375 168.386719 66.261719 C 167.851562 66.914062 167.351562 67.59375 166.882812 68.296875 C 166.414062 69 165.984375 69.722656 165.585938 70.464844 C 165.191406 71.210938 164.832031 71.972656 164.507812 72.753906 C 164.1875 73.535156 163.902344 74.328125 163.660156 75.136719 C 163.414062 75.945312 163.210938 76.761719 163.046875 77.589844 C 162.882812 78.417969 162.761719 79.253906 162.679688 80.09375 C 162.597656 80.933594 162.558594 81.773438 162.558594 82.617188 C 162.558594 83.460938 162.601562 84.304688 162.683594 85.144531 C 162.769531 85.984375 162.890625 86.816406 163.058594 87.644531 C 163.222656 88.472656 163.429688 89.292969 163.671875 90.097656 C 163.917969 90.90625 164.203125 91.699219 164.527344 92.480469 C 164.851562 93.257812 165.210938 94.019531 165.609375 94.765625 C 166.007812 95.507812 166.441406 96.230469 166.910156 96.933594 C 167.378906 97.636719 167.882812 98.3125 168.417969 98.964844 C 168.953125 99.617188 169.519531 100.238281 170.113281 100.835938 C 170.710938 101.433594 171.335938 102 171.988281 102.535156 C 172.640625 103.070312 173.316406 103.570312 174.019531 104.039062 C 174.71875 104.507812 175.441406 104.941406 176.1875 105.335938 C 176.929688 105.734375 177.691406 106.09375 178.472656 106.417969 C 179.25 106.742188 180.042969 107.023438 180.851562 107.269531 C 181.65625 107.511719 182.472656 107.71875 183.300781 107.882812 C 184.128906 108.046875 184.960938 108.167969 185.800781 108.25 C 186.640625 108.332031 187.480469 108.375 188.324219 108.375 C 189.167969 108.375 190.007812 108.332031 190.847656 108.25 C 191.6875 108.164062 192.519531 108.042969 193.347656 107.875 C 194.175781 107.710938 194.992188 107.507812 195.796875 107.261719 C 196.605469 107.015625 197.398438 106.730469 198.175781 106.40625 C 198.953125 106.085938 199.714844 105.722656 200.460938 105.324219 C 201.203125 104.929688 201.925781 104.492188 202.625 104.023438 C 203.328125 103.554688 204.003906 103.054688 204.65625 102.519531 C 205.304688 101.980469 205.929688 101.414062 206.527344 100.820312 C 207.121094 100.222656 207.6875 99.597656 208.222656 98.945312 C 208.757812 98.292969 209.257812 97.613281 209.726562 96.914062 C 210.195312 96.210938 210.628906 95.488281 211.027344 94.742188 C 211.421875 94 211.78125 93.238281 212.105469 92.457031 C 212.429688 91.675781 212.710938 90.882812 212.957031 90.074219 C 213.203125 89.265625 213.40625 88.449219 213.570312 87.621094 C 213.734375 86.792969 213.859375 85.960938 213.941406 85.121094 C 214.023438 84.28125 214.066406 83.4375 214.066406 82.59375 L 214.066406 82.542969 C 214.0625 81.699219 214.019531 80.859375 213.9375 80.019531 C 213.851562 79.179688 213.726562 78.34375 213.558594 77.515625 C 213.394531 76.691406 213.1875 75.871094 212.941406 75.066406 C 212.695312 74.257812 212.410156 73.464844 212.085938 72.6875 C 211.761719 71.90625 211.402344 71.144531 211.003906 70.402344 C 210.601562 69.65625 210.167969 68.933594 209.699219 68.234375 C 209.230469 67.535156 208.726562 66.855469 208.191406 66.207031 C 207.65625 65.554688 207.089844 64.929688 206.492188 64.335938 C 205.894531 63.738281 205.269531 63.171875 204.617188 62.640625 C 203.964844 62.105469 203.285156 61.605469 202.585938 61.136719 C 201.882812 60.667969 201.160156 60.234375 200.414062 59.839844 C 199.671875 59.441406 198.910156 59.082031 198.128906 58.761719 C 197.351562 58.441406 196.558594 58.15625 195.75 57.914062 C 194.941406 57.667969 194.125 57.464844 193.296875 57.300781 C 192.472656 57.140625 191.636719 57.015625 190.796875 56.933594 C 189.960938 56.855469 189.117188 56.8125 188.273438 56.816406 Z M 103.320312 116.363281 C 98.792969 116.386719 94.195312 116.640625 89.878906 117.730469 C 87.035156 118.449219 84.28125 119.636719 82.496094 121.480469 C 80.253906 123.792969 79.964844 126.929688 81.058594 129.605469 C 82.035156 131.964844 84.667969 133.734375 87.597656 134.746094 C 93.898438 136.90625 100.90625 137.367188 107.535156 138.726562 C 108.757812 139.027344 110.109375 139.355469 110.867188 140.191406 C 111.652344 141.183594 111.183594 142.554688 109.898438 143.179688 C 107.746094 144.273438 104.996094 144.28125 102.488281 144.246094 C 100.195312 144.152344 97.683594 143.957031 95.863281 142.808594 C 94.519531 141.984375 94.285156 140.578125 94.585938 139.371094 L 79.808594 139.375 C 79.769531 141.625 80.207031 143.976562 81.855469 145.910156 C 83.234375 147.558594 85.457031 148.722656 87.851562 149.425781 C 91.671875 150.550781 95.8125 150.886719 99.890625 150.992188 C 105.421875 151.085938 111.0625 150.921875 116.375 149.664062 C 119.542969 148.894531 122.652344 147.644531 124.679688 145.617188 C 128.28125 142 127.433594 136.269531 122.648438 133.457031 C 120.265625 132.066406 117.410156 131.203125 114.5 130.648438 C 110.242188 129.765625 105.910156 129.121094 101.597656 128.40625 C 100.082031 128.113281 98.480469 127.851562 97.207031 127.132812 C 95.875 126.417969 95.769531 124.730469 97.125 123.996094 C 98.882812 123.003906 101.21875 123.011719 103.320312 123.007812 C 105.535156 123.046875 107.945312 123.1875 109.765625 124.226562 C 110.789062 124.796875 111.195312 125.757812 111.207031 126.679688 L 125.253906 126.644531 C 125.195312 124.863281 124.867188 123.011719 123.566406 121.472656 C 122.058594 119.582031 119.40625 118.386719 116.675781 117.691406 C 112.390625 116.605469 107.816406 116.382812 103.320312 116.363281 Z M 133.789062 117.425781 L 133.78125 151.015625 L 174.738281 151.019531 L 174.734375 143.695312 L 148.804688 143.695312 L 148.804688 137.175781 L 171.929688 137.175781 L 171.929688 130.015625 L 148.804688 130.015625 L 148.796875 124.667969 L 173.796875 124.660156 L 173.785156 117.425781 Z M 201.265625 117.4375 C 201.265625 117.4375 188.609375 117.441406 182.285156 117.441406 L 182.28125 151.035156 L 196.660156 151.035156 L 196.652344 128.429688 L 216.347656 151.019531 L 236.082031 151.035156 L 236.074219 117.441406 L 221.683594 117.445312 L 221.703125 139.886719 Z M 261.71875 117.492188 C 261.71875 117.492188 246.21875 139.902344 238.429688 151.089844 L 253.523438 151.09375 L 257.144531 145.03125 L 280.464844 145.03125 L 283.84375 151.09375 L 300.605469 151.09375 L 278.390625 117.5 Z M 269.261719 125.511719 L 276.417969 137.679688 L 261.625 137.703125 Z M 67.984375 160.519531 L 68.113281 178.808594 L 136.378906 178.5625 C 139.859375 179.3125 141.882812 181.582031 141.171875 186.738281 L 99.183594 260.316406 L 112.863281 273.113281 L 177.894531 160.519531 Z M 198.25 160.675781 L 262.199219 272.792969 L 276.332031 260.074219 L 233.855469 186.691406 C 233.144531 181.519531 235.167969 179.226562 238.648438 178.472656 L 306.929688 178.714844 L 306.910156 160.730469 Z M 187.460938 179.230469 L 127.488281 282.273438 L 143.417969 290.046875 L 183.433594 222.339844 C 184.8125 221.210938 186.210938 220.609375 187.609375 220.554688 C 189.078125 220.496094 190.570312 221.042969 192.0625 222.207031 L 231.984375 290.121094 L 248.417969 281.542969 Z M 187.460938 179.230469 " fill-opacity="1" fill-rule="nonzero"/><g clip-path="url(#788f68befe)"><path fill="#39a900" d="M 120.105469 325.863281 C 120.105469 326.175781 120.078125 326.480469 120.015625 326.785156 C 119.957031 327.089844 119.867188 327.382812 119.746094 327.667969 C 119.628906 327.957031 119.484375 328.226562 119.3125 328.484375 C 119.140625 328.742188 118.945312 328.980469 118.726562 329.199219 C 118.507812 329.417969 118.269531 329.613281 118.011719 329.785156 C 117.753906 329.957031 117.480469 330.105469 117.195312 330.222656 C 116.910156 330.339844 116.613281 330.429688 116.308594 330.492188 C 116.007812 330.550781 115.699219 330.582031 115.390625 330.582031 C 115.082031 330.582031 114.773438 330.550781 114.46875 330.492188 C 114.167969 330.429688 113.871094 330.339844 113.585938 330.222656 C 113.300781 330.105469 113.027344 329.957031 112.769531 329.785156 C 112.511719 329.613281 112.273438 329.417969 112.054688 329.199219 C 111.835938 328.980469 111.640625 328.742188 111.46875 328.484375 C 111.296875 328.226562 111.152344 327.957031 111.03125 327.667969 C 110.914062 327.382812 110.824219 327.089844 110.765625 326.785156 C 110.703125 326.480469 110.671875 326.175781 110.671875 325.863281 C 110.671875 325.554688 110.703125 325.25 110.765625 324.945312 C 110.824219 324.640625 110.914062 324.347656 111.03125 324.058594 C 111.152344 323.773438 111.296875 323.5 111.46875 323.246094 C 111.640625 322.988281 111.835938 322.75 112.054688 322.53125 C 112.273438 322.308594 112.511719 322.113281 112.769531 321.941406 C 113.027344 321.769531 113.300781 321.625 113.585938 321.507812 C 113.871094 321.386719 114.167969 321.300781 114.46875 321.238281 C 114.773438 321.179688 115.082031 321.148438 115.390625 321.148438 C 115.699219 321.148438 116.007812 321.179688 116.308594 321.238281 C 116.613281 321.300781 116.910156 321.386719 117.195312 321.507812 C 117.480469 321.625 117.753906 321.769531 118.011719 321.941406 C 118.269531 322.113281 118.507812 322.308594 118.726562 322.53125 C 118.945312 322.75 119.140625 322.988281 119.3125 323.246094 C 119.484375 323.5 119.628906 323.773438 119.746094 324.058594 C 119.867188 324.347656 119.957031 324.640625 120.015625 324.945312 C 120.078125 325.25 120.105469 325.554688 120.105469 325.863281 Z M 120.105469 325.863281 " fill-opacity="1" fill-rule="nonzero"/></g><g fill="#39a900" fill-opacity="1"><g transform="translate(138.321132, 332.262829)"><g><path d="M 0.53125 0 L 5.609375 -14.171875 L 8.625 -14.171875 L 13.703125 0 L 10.84375 0 L 9.6875 -3.28125 L 4.59375 -3.28125 L 3.40625 0 Z M 5.234375 -5.78125 L 9 -5.78125 L 7.125 -11.40625 Z M 5.234375 -5.78125 "/></g></g></g><g fill="#39a900" fill-opacity="1"><g transform="translate(155.534686, 332.262829)"><g><path d="M 12.578125 0 L 9.609375 0 L 7.3125 -5.453125 L 4.4375 -5.453125 L 4.4375 0 L 1.59375 0 L 1.59375 -14.171875 L 7.5625 -14.171875 C 8.695312 -14.171875 9.617188 -13.988281 10.328125 -13.625 C 11.046875 -13.269531 11.578125 -12.769531 11.921875 -12.125 C 12.265625 -11.488281 12.4375 -10.757812 12.4375 -9.9375 C 12.4375 -9.1875 12.316406 -8.554688 12.078125 -8.046875 C 11.847656 -7.535156 11.546875 -7.109375 11.171875 -6.765625 C 10.796875 -6.429688 10.382812 -6.15625 9.9375 -5.9375 Z M 7.046875 -7.65625 C 7.816406 -7.65625 8.425781 -7.859375 8.875 -8.265625 C 9.320312 -8.679688 9.546875 -9.210938 9.546875 -9.859375 C 9.546875 -10.515625 9.328125 -11.03125 8.890625 -11.40625 C 8.460938 -11.789062 7.921875 -11.984375 7.265625 -11.984375 L 4.4375 -11.984375 L 4.4375 -7.65625 Z M 7.046875 -7.65625 "/></g></g></g><g fill="#39a900" fill-opacity="1"><g transform="translate(172.150684, 332.262829)"><g><path d="M 0.53125 0 L 5.609375 -14.171875 L 8.625 -14.171875 L 13.703125 0 L 10.84375 0 L 9.6875 -3.28125 L 4.59375 -3.28125 L 3.40625 0 Z M 5.234375 -5.78125 L 9 -5.78125 L 7.125 -11.40625 Z M 5.234375 -5.78125 "/></g></g></g><g fill="#39a900" fill-opacity="1"><g transform="translate(189.36424, 332.262829)"><g><path d="M 12.921875 -5.390625 C 12.921875 -4.253906 12.734375 -3.265625 12.359375 -2.421875 C 11.992188 -1.585938 11.394531 -0.941406 10.5625 -0.484375 C 9.726562 -0.0234375 8.625 0.203125 7.25 0.203125 C 5.875 0.203125 4.769531 -0.0234375 3.9375 -0.484375 C 3.101562 -0.953125 2.503906 -1.609375 2.140625 -2.453125 C 1.773438 -3.304688 1.59375 -4.320312 1.59375 -5.5 L 1.59375 -14.171875 L 4.5 -14.171875 L 4.5 -5.28125 C 4.5 -4.21875 4.753906 -3.441406 5.265625 -2.953125 C 5.773438 -2.472656 6.4375 -2.234375 7.25 -2.234375 C 7.789062 -2.234375 8.269531 -2.335938 8.6875 -2.546875 C 9.101562 -2.765625 9.429688 -3.097656 9.671875 -3.546875 C 9.910156 -3.992188 10.03125 -4.570312 10.03125 -5.28125 L 10.03125 -14.171875 L 12.921875 -14.171875 Z M 12.921875 -5.390625 "/></g></g></g><g fill="#39a900" fill-opacity="1"><g transform="translate(206.528817, 332.262829)"><g><path d="M 7.359375 -14.359375 C 8.421875 -14.359375 9.367188 -14.144531 10.203125 -13.71875 C 11.035156 -13.289062 11.707031 -12.707031 12.21875 -11.96875 C 12.726562 -11.226562 13.03125 -10.394531 13.125 -9.46875 L 10.125 -9.46875 C 10.039062 -9.957031 9.875 -10.394531 9.625 -10.78125 C 9.382812 -11.164062 9.066406 -11.46875 8.671875 -11.6875 C 8.285156 -11.90625 7.816406 -12.015625 7.265625 -12.015625 C 6.609375 -12.015625 6.039062 -11.851562 5.5625 -11.53125 C 5.082031 -11.207031 4.710938 -10.691406 4.453125 -9.984375 C 4.203125 -9.273438 4.078125 -8.332031 4.078125 -7.15625 C 4.078125 -5.394531 4.359375 -4.117188 4.921875 -3.328125 C 5.492188 -2.546875 6.273438 -2.15625 7.265625 -2.15625 C 7.816406 -2.15625 8.285156 -2.28125 8.671875 -2.53125 C 9.066406 -2.78125 9.382812 -3.113281 9.625 -3.53125 C 9.875 -3.945312 10.039062 -4.398438 10.125 -4.890625 L 13.125 -4.890625 C 13.039062 -4.222656 12.878906 -3.582031 12.640625 -2.96875 C 12.398438 -2.363281 12.054688 -1.820312 11.609375 -1.34375 C 11.160156 -0.863281 10.585938 -0.484375 9.890625 -0.203125 C 9.191406 0.0664062 8.347656 0.203125 7.359375 0.203125 C 6.035156 0.203125 4.894531 -0.101562 3.9375 -0.71875 C 2.976562 -1.332031 2.238281 -2.195312 1.71875 -3.3125 C 1.195312 -4.425781 0.9375 -5.722656 0.9375 -7.203125 C 0.9375 -8.691406 1.191406 -9.96875 1.703125 -11.03125 C 2.222656 -12.101562 2.960938 -12.925781 3.921875 -13.5 C 4.890625 -14.070312 6.035156 -14.359375 7.359375 -14.359375 Z M 7.359375 -14.359375 "/></g></g></g><g fill="#39a900" fill-opacity="1"><g transform="translate(223.575831, 332.262829)"><g><path d="M 0.53125 0 L 5.609375 -14.171875 L 8.625 -14.171875 L 13.703125 0 L 10.84375 0 L 9.6875 -3.28125 L 4.59375 -3.28125 L 3.40625 0 Z M 5.234375 -5.78125 L 9 -5.78125 L 7.125 -11.40625 Z M 5.234375 -5.78125 "/></g></g></g><g clip-path="url(#7aee4222a2)"><path fill="#39a900" d="M 264.421875 326.445312 C 264.421875 326.753906 264.390625 327.0625 264.332031 327.367188 C 264.269531 327.667969 264.179688 327.964844 264.0625 328.25 C 263.945312 328.535156 263.796875 328.808594 263.625 329.066406 C 263.453125 329.324219 263.257812 329.5625 263.039062 329.78125 C 262.820312 330 262.582031 330.195312 262.324219 330.367188 C 262.066406 330.539062 261.796875 330.683594 261.511719 330.804688 C 261.222656 330.921875 260.929688 331.011719 260.625 331.070312 C 260.320312 331.132812 260.015625 331.164062 259.703125 331.164062 C 259.394531 331.164062 259.089844 331.132812 258.785156 331.070312 C 258.480469 331.011719 258.1875 330.921875 257.898438 330.804688 C 257.613281 330.683594 257.34375 330.539062 257.085938 330.367188 C 256.828125 330.195312 256.589844 330 256.371094 329.78125 C 256.152344 329.5625 255.957031 329.324219 255.785156 329.066406 C 255.609375 328.808594 255.464844 328.535156 255.347656 328.25 C 255.230469 327.964844 255.140625 327.667969 255.078125 327.367188 C 255.019531 327.0625 254.988281 326.753906 254.988281 326.445312 C 254.988281 326.136719 255.019531 325.828125 255.078125 325.527344 C 255.140625 325.222656 255.230469 324.925781 255.347656 324.640625 C 255.464844 324.355469 255.609375 324.082031 255.785156 323.824219 C 255.957031 323.566406 256.152344 323.328125 256.371094 323.109375 C 256.589844 322.890625 256.828125 322.695312 257.085938 322.523438 C 257.34375 322.351562 257.613281 322.207031 257.898438 322.089844 C 258.1875 321.96875 258.480469 321.878906 258.785156 321.820312 C 259.089844 321.757812 259.394531 321.730469 259.703125 321.730469 C 260.015625 321.730469 260.320312 321.757812 260.625 321.820312 C 260.929688 321.878906 261.222656 321.96875 261.511719 322.089844 C 261.796875 322.207031 262.066406 322.351562 262.324219 322.523438 C 262.582031 322.695312 262.820312 322.890625 263.039062 323.109375 C 263.257812 323.328125 263.453125 323.566406 263.625 323.824219 C 263.796875 324.082031 263.945312 324.355469 264.0625 324.640625 C 264.179688 324.925781 264.269531 325.222656 264.332031 325.527344 C 264.390625 325.828125 264.421875 326.136719 264.421875 326.445312 Z M 264.421875 326.445312 " fill-opacity="1" fill-rule="nonzero"/></g></svg>